<svg width="172" height="172" viewBox="0 0 172 172" fill="none" xmlns="http://www.w3.org/2000/svg">
<path d="M154.4 138.07L153.55 137.42C164.86 122.57 170.84 104.83 170.84 86.11C170.84 57.11 156.25 30.43 131.81 14.74L132.39 13.84C157.14 29.72 171.91 56.74 171.91 86.11C171.91 105.06 165.85 123.03 154.4 138.07Z" fill="#6B9BA5"/>
<path d="M86.0998 171.92C38.7798 171.92 0.279785 133.42 0.279785 86.1C0.279785 38.78 38.7798 0.280029 86.0998 0.280029V1.35002C39.3698 1.35002 1.35979 39.37 1.35979 86.09C1.35979 132.82 39.3798 170.83 86.0998 170.83C100.22 170.83 114.2 167.29 126.52 160.59L127.03 161.53C114.55 168.34 100.39 171.92 86.0998 171.92Z" fill="#6B9BA5"/>
<path d="M45.4898 152.16C22.3698 137.92 8.56982 113.22 8.56982 86.1H10.7198C10.7198 112.47 24.1398 136.48 46.6198 150.33L45.4898 152.16Z" fill="#6B9BA5"/>
<path d="M86.1 163.64C77.6 163.64 69.25 162.27 61.27 159.58L61.96 157.55C69.72 160.17 77.84 161.5 86.11 161.5C124.94 161.5 157.19 132.41 161.1 93.8301L163.24 94.0501C159.2 133.71 126.04 163.64 86.1 163.64Z" fill="#6B9BA5"/>
<path d="M160.52 74.0601C157.71 56.5701 148.73 40.5401 135.22 28.9301C121.57 17.1901 104.12 10.7301 86.0998 10.7301C71.5498 10.7301 57.4298 14.8801 45.2598 22.7401C31.0798 31.9001 20.2598 45.7001 14.7898 61.6001L12.7598 60.9001C18.3798 44.5501 29.5098 30.3601 44.0898 20.9401C56.6098 12.8601 71.1298 8.59009 86.0898 8.59009C104.63 8.59009 122.57 15.2401 136.61 27.3101C150.5 39.2501 159.74 55.7401 162.63 73.7301L160.52 74.0601Z" fill="#6B9BA5"/>
<path d="M86.0996 142.1C55.2196 142.1 30.0996 116.98 30.0996 86.1C30.0996 73.6 34.1296 61.78 41.7396 51.92L43.4396 53.23C36.1196 62.72 32.2496 74.08 32.2496 86.1C32.2496 115.79 56.4096 139.95 86.0996 139.95C91.3696 139.95 96.5796 139.19 101.57 137.69L102.19 139.75C96.9896 141.32 91.5696 142.1 86.0996 142.1Z" fill="#6B9BA5"/>
<path d="M123.92 127.4L122.47 125.82C133.58 115.64 139.95 101.17 139.95 86.11C139.95 75.51 136.87 65.25 131.05 56.44L132.84 55.26C138.9 64.42 142.1 75.09 142.1 86.12C142.09 101.77 135.47 116.82 123.92 127.4Z" fill="#6B9BA5"/>
<path d="M119.6 43.94C109.99 36.29 98.3996 32.25 86.0996 32.25C75.3096 32.25 64.8996 35.43 55.9896 41.45L54.7896 39.67C64.0496 33.41 74.8796 30.11 86.0996 30.11C98.8996 30.11 110.95 34.31 120.94 42.27L119.6 43.94Z" fill="#6B9BA5"/>
<path d="M86.0997 132.48C78.5597 132.48 71.0697 130.63 64.4497 127.13L64.9497 126.18C71.4197 129.6 78.7297 131.41 86.0897 131.41C106.42 131.41 124.38 117.74 129.77 98.16L130.8 98.45C125.3 118.49 106.91 132.48 86.0997 132.48Z" fill="#6B9BA5"/>
<path d="M53.3097 118.91C44.5497 110.15 39.7197 98.5 39.7197 86.11C39.7197 60.54 60.5197 39.73 86.0997 39.73C111.67 39.73 132.48 60.54 132.48 86.11H131.41C131.41 61.13 111.09 40.81 86.1097 40.81C61.1297 40.81 40.8097 61.13 40.8097 86.11C40.8097 98.21 45.5197 109.59 54.0897 118.15L53.3097 118.91Z" fill="#6B9BA5"/>
<path d="M86.1 114.95C70.19 114.95 57.25 102.01 57.25 86.1C57.25 70.19 70.19 57.25 86.1 57.25V59.4C71.38 59.4 59.4 71.38 59.4 86.1C59.4 100.82 71.38 112.8 86.1 112.8C100.82 112.8 112.8 100.82 112.8 86.1H114.95C114.94 102.01 102 114.95 86.1 114.95Z" fill="#6B9BA5"/>
<path d="M86.0998 100.44C78.1898 100.44 71.7598 94.01 71.7598 86.1H72.8297C72.8297 93.41 78.7798 99.36 86.0898 99.36C93.3998 99.36 99.3498 93.41 99.3498 86.1C99.3498 78.79 93.3998 72.84 86.0898 72.84C82.0298 72.84 78.2497 74.66 75.7097 77.84L74.8698 77.17C77.6098 73.73 81.6998 71.76 86.0898 71.76C93.9998 71.76 100.43 78.19 100.43 86.1C100.43 94.01 93.9998 100.44 86.0998 100.44Z" fill="#6B9BA5"/>
</svg>
